<svg width="44" height="10" viewBox="0 0 44 10" fill="none" xmlns="http://www.w3.org/2000/svg">
<path d="M2.64 9.33C2.6 9.33 2.56 9.29 2.52 9.21C2.52 9.13 2.54 9.01 2.58 8.85C2.62 8.57 2.78 8.13 3.06 7.53C3.34 6.93 3.58 6.49 3.78 6.21C3.86 6.13 3.88 6.09 3.84 6.09C3.72 6.09 3.2 6.33 2.28 6.81C1.4 7.29 0.92 7.59 0.84 7.71C0.680001 7.87 0.520001 7.95 0.360001 7.95C0.12 7.95 0 7.87 0 7.71C0 7.39 0.4 6.99 1.2 6.51L2.34 5.79C2.54 5.71 2.86 5.53 3.3 5.25C3.78 4.93 4 4.75 3.96 4.71C3.88 4.63 3.82 4.59 3.78 4.59C3.58 4.59 3.3 4.47 2.94 4.23C2.14 3.87 1.74 3.57 1.74 3.33C1.74 3.25 1.64 3.15 1.44 3.03C1.16 2.79 1.14 2.51 1.38 2.19C1.5 2.07 1.6 2.01 1.68 2.01C1.76 2.01 1.96 2.17 2.28 2.49C2.6 2.81 2.9 3.01 3.18 3.09C3.58 3.25 4.18 3.53 4.98 3.93C5.14 4.01 5.26 4.07 5.34 4.11C5.42 4.11 5.48 4.07 5.52 3.99L5.88 3.57C6.4 2.89 6.86 2.21 7.26 1.53L7.5 1.23L7.86 0.81C7.98 0.570001 8.12 0.370001 8.28 0.210001C8.32 0.13 8.38 0.0699991 8.46 0.0299996C8.54 -0.00999987 8.6 -0.00999987 8.64 0.0299996C8.72 0.0299996 8.84 0.0700003 9 0.150002C9.12 0.150002 9.18 0.210001 9.18 0.329999C9.18 0.45 9.06 0.690001 8.82 1.05C8.58 1.37 8.46 1.57 8.46 1.65C8.46 1.69 8.36 1.85 8.16 2.13C8 2.37 7.84 2.63 7.68 2.91C7.56 3.15 7.54 3.25 7.62 3.21L8.22 2.85L8.94 2.49C9.1 2.37 9.48 2.23 10.08 2.07C10.72 1.91 11.14 1.83 11.34 1.83C11.62 1.83 11.78 1.89 11.82 2.01C11.82 2.09 11.78 2.17 11.7 2.25C11.62 2.33 11.48 2.41 11.28 2.49L10.62 2.73C10.34 2.85 9.92 3.05 9.36 3.33C8.84 3.61 8.44 3.85 8.16 4.05C8.12 4.09 8.06 4.13 7.98 4.17C7.94 4.21 7.9 4.23 7.86 4.23C7.7 4.23 7.48 4.31 7.2 4.47L6.72 4.71L7.38 5.13C7.94 5.49 8.54 6.01 9.18 6.69C9.82 7.37 10.14 7.83 10.14 8.07C10.14 8.15 10.08 8.21 9.96 8.25C9.88 8.25 9.74 8.23 9.54 8.19C9.18 8.19 8.94 8.09 8.82 7.89C8.62 7.69 8.48 7.59 8.4 7.59C8.28 7.55 8.1 7.41 7.86 7.17C7.74 6.97 7.42 6.71 6.9 6.39C6.38 6.15 6.1 5.97 6.06 5.85C5.98 5.77 5.9 5.75 5.82 5.79C5.74 5.83 5.66 5.91 5.58 6.03L4.86 6.99L4.2 7.95C4.08 8.07 4.02 8.19 4.02 8.31C4.02 8.39 3.98 8.43 3.9 8.43C3.86 8.43 3.76 8.57 3.6 8.85C3.4 9.13 3.26 9.27 3.18 9.27C2.98 9.27 2.84 9.29 2.76 9.33H2.64Z" fill="#161513"/>
<path d="M18.4598 9.33C18.4198 9.33 18.3798 9.29 18.3398 9.21C18.3398 9.13 18.3598 9.01 18.3998 8.85C18.4398 8.57 18.5998 8.13 18.8798 7.53C19.1598 6.93 19.3998 6.49 19.5998 6.21C19.6798 6.13 19.6998 6.09 19.6598 6.09C19.5398 6.09 19.0198 6.33 18.0998 6.81C17.2198 7.29 16.7398 7.59 16.6598 7.71C16.4998 7.87 16.3398 7.95 16.1798 7.95C15.9398 7.95 15.8198 7.87 15.8198 7.71C15.8198 7.39 16.2198 6.99 17.0198 6.51L18.1598 5.79C18.3598 5.71 18.6798 5.53 19.1198 5.25C19.5998 4.93 19.8198 4.75 19.7798 4.71C19.6998 4.63 19.6398 4.59 19.5998 4.59C19.3998 4.59 19.1198 4.47 18.7598 4.23C17.9598 3.87 17.5598 3.57 17.5598 3.33C17.5598 3.25 17.4598 3.15 17.2598 3.03C16.9798 2.79 16.9598 2.51 17.1998 2.19C17.3198 2.07 17.4198 2.01 17.4998 2.01C17.5798 2.01 17.7798 2.17 18.0998 2.49C18.4198 2.81 18.7198 3.01 18.9998 3.09C19.3998 3.25 19.9998 3.53 20.7998 3.93C20.9598 4.01 21.0798 4.07 21.1598 4.11C21.2398 4.11 21.2998 4.07 21.3398 3.99L21.6998 3.57C22.2198 2.89 22.6798 2.21 23.0798 1.53L23.3198 1.23L23.6798 0.81C23.7998 0.570001 23.9398 0.370001 24.0998 0.210001C24.1398 0.13 24.1998 0.0699991 24.2798 0.0299996C24.3598 -0.00999987 24.4198 -0.00999987 24.4598 0.0299996C24.5398 0.0299996 24.6598 0.0700003 24.8198 0.150002C24.9398 0.150002 24.9998 0.210001 24.9998 0.329999C24.9998 0.45 24.8798 0.690001 24.6398 1.05C24.3998 1.37 24.2798 1.57 24.2798 1.65C24.2798 1.69 24.1798 1.85 23.9798 2.13C23.8198 2.37 23.6598 2.63 23.4998 2.91C23.3798 3.15 23.3598 3.25 23.4398 3.21L24.0398 2.85L24.7598 2.49C24.9198 2.37 25.2998 2.23 25.8998 2.07C26.5398 1.91 26.9598 1.83 27.1598 1.83C27.4398 1.83 27.5998 1.89 27.6398 2.01C27.6398 2.09 27.5998 2.17 27.5198 2.25C27.4398 2.33 27.2998 2.41 27.0998 2.49L26.4398 2.73C26.1598 2.85 25.7398 3.05 25.1798 3.33C24.6598 3.61 24.2598 3.85 23.9798 4.05C23.9398 4.09 23.8798 4.13 23.7998 4.17C23.7598 4.21 23.7198 4.23 23.6798 4.23C23.5198 4.23 23.2998 4.31 23.0198 4.47L22.5398 4.71L23.1998 5.13C23.7598 5.49 24.3598 6.01 24.9998 6.69C25.6398 7.37 25.9598 7.83 25.9598 8.07C25.9598 8.15 25.8998 8.21 25.7798 8.25C25.6998 8.25 25.5598 8.23 25.3598 8.19C24.9998 8.19 24.7598 8.09 24.6398 7.89C24.4398 7.69 24.2998 7.59 24.2198 7.59C24.0998 7.55 23.9198 7.41 23.6798 7.17C23.5598 6.97 23.2398 6.71 22.7198 6.39C22.1998 6.15 21.9198 5.97 21.8798 5.85C21.7998 5.77 21.7198 5.75 21.6398 5.79C21.5598 5.83 21.4798 5.91 21.3998 6.03L20.6798 6.99L20.0198 7.95C19.8998 8.07 19.8398 8.19 19.8398 8.31C19.8398 8.39 19.7998 8.43 19.7198 8.43C19.6798 8.43 19.5798 8.57 19.4198 8.85C19.2198 9.13 19.0798 9.27 18.9998 9.27C18.7998 9.27 18.6598 9.29 18.5798 9.33H18.4598Z" fill="#161513"/>
<path d="M34.2801 9.33C34.2401 9.33 34.2001 9.29 34.1601 9.21C34.1601 9.13 34.1801 9.01 34.2201 8.85C34.2601 8.57 34.4201 8.13 34.7001 7.53C34.9801 6.93 35.2201 6.49 35.4201 6.21C35.5001 6.13 35.5201 6.09 35.4801 6.09C35.3601 6.09 34.8401 6.33 33.9201 6.81C33.0401 7.29 32.5601 7.59 32.4801 7.71C32.3201 7.87 32.1601 7.95 32.0001 7.95C31.7601 7.95 31.6401 7.87 31.6401 7.71C31.6401 7.39 32.0401 6.99 32.8401 6.51L33.9801 5.79C34.1801 5.71 34.5001 5.53 34.9401 5.25C35.4201 4.93 35.6401 4.75 35.6001 4.71C35.5201 4.63 35.4601 4.59 35.4201 4.59C35.2201 4.59 34.9401 4.47 34.5801 4.23C33.7801 3.87 33.3801 3.57 33.3801 3.33C33.3801 3.25 33.2801 3.15 33.0801 3.03C32.8001 2.79 32.7801 2.51 33.0201 2.19C33.1401 2.07 33.2401 2.01 33.3201 2.01C33.4001 2.01 33.6001 2.17 33.9201 2.49C34.2401 2.81 34.5401 3.01 34.8201 3.09C35.2201 3.25 35.8201 3.53 36.6201 3.93C36.7801 4.01 36.9001 4.07 36.9801 4.11C37.0601 4.11 37.1201 4.07 37.1601 3.99L37.5201 3.57C38.0401 2.89 38.5001 2.21 38.9001 1.53L39.1401 1.23L39.5001 0.81C39.6201 0.570001 39.7601 0.370001 39.9201 0.210001C39.9601 0.13 40.0201 0.0699991 40.1001 0.0299996C40.1801 -0.00999987 40.2401 -0.00999987 40.2801 0.0299996C40.3601 0.0299996 40.4801 0.0700003 40.6401 0.150002C40.7601 0.150002 40.8201 0.210001 40.8201 0.329999C40.8201 0.45 40.7001 0.690001 40.4601 1.05C40.2201 1.37 40.1001 1.57 40.1001 1.65C40.1001 1.69 40.0001 1.85 39.8001 2.13C39.6401 2.37 39.4801 2.63 39.3201 2.91C39.2001 3.15 39.1801 3.25 39.2601 3.21L39.8601 2.85L40.5801 2.49C40.7401 2.37 41.1201 2.23 41.7201 2.07C42.3601 1.91 42.7801 1.83 42.9801 1.83C43.2601 1.83 43.4201 1.89 43.4601 2.01C43.4601 2.09 43.4201 2.17 43.3401 2.25C43.2601 2.33 43.1201 2.41 42.9201 2.49L42.2601 2.73C41.9801 2.85 41.5601 3.05 41.0001 3.33C40.4801 3.61 40.0801 3.85 39.8001 4.05C39.7601 4.09 39.7001 4.13 39.6201 4.17C39.5801 4.21 39.5401 4.23 39.5001 4.23C39.3401 4.23 39.1201 4.31 38.8401 4.47L38.3601 4.71L39.0201 5.13C39.5801 5.49 40.1801 6.01 40.8201 6.69C41.4601 7.37 41.7801 7.83 41.7801 8.07C41.7801 8.15 41.7201 8.21 41.6001 8.25C41.5201 8.25 41.3801 8.23 41.1801 8.19C40.8201 8.19 40.5801 8.09 40.4601 7.89C40.2601 7.69 40.1201 7.59 40.0401 7.59C39.9201 7.55 39.7401 7.41 39.5001 7.17C39.3801 6.97 39.0601 6.71 38.5401 6.39C38.0201 6.15 37.7401 5.97 37.7001 5.85C37.6201 5.77 37.5401 5.75 37.4601 5.79C37.3801 5.83 37.3001 5.91 37.2201 6.03L36.5001 6.99L35.8401 7.95C35.7201 8.07 35.6601 8.19 35.6601 8.31C35.6601 8.39 35.6201 8.43 35.5401 8.43C35.5001 8.43 35.4001 8.57 35.2401 8.85C35.0401 9.13 34.9001 9.27 34.8201 9.27C34.6201 9.27 34.4801 9.29 34.4001 9.33H34.2801Z" fill="#161513"/>
</svg>
